<svg xmlns="http://www.w3.org/2000/svg" viewBox="0 0 800 500" role="img" aria-label="Illustration of a community dining room">
<rect width="800" height="500" fill="#f5efe3"/>
<rect y="360" width="800" height="140" fill="#d9c8a9"/>
<rect x="70" y="80" width="200" height="160" rx="6" fill="#dfe9f2" stroke="#c9b99d" stroke-width="5"/>
<rect x="530" y="80" width="200" height="160" rx="6" fill="#dfe9f2" stroke="#c9b99d" stroke-width="5"/>
<g stroke="#8a6d55" stroke-width="6" fill="none"><line x1="400" y1="0" x2="400" y2="90"/></g>
<circle cx="400" cy="112" r="26" fill="#f6e7b2" stroke="#8a6d55" stroke-width="5"/>
<g fill="#fff" stroke="#b9a887" stroke-width="4">
<ellipse cx="240" cy="360" rx="110" ry="28"/><ellipse cx="560" cy="360" rx="110" ry="28"/>
</g>
<g fill="#8a6d55"><rect x="230" y="385" width="18" height="70"/><rect x="550" y="385" width="18" height="70"/></g>
<g fill="#5f7d54"><rect x="150" y="330" width="26" height="90" rx="6"/><rect x="330" y="330" width="26" height="90" rx="6"/><rect x="470" y="330" width="26" height="90" rx="6"/><rect x="650" y="330" width="26" height="90" rx="6"/></g>
<g fill="#c8556a"><circle cx="240" cy="345" r="9"/><circle cx="560" cy="345" r="9"/></g>
<g fill="#e8f0f7" stroke="#b9a887" stroke-width="3"><circle cx="205" cy="352" r="13"/><circle cx="275" cy="352" r="13"/><circle cx="525" cy="352" r="13"/><circle cx="595" cy="352" r="13"/></g>
</svg>
