<svg xmlns="http://www.w3.org/2000/svg" viewBox="0 0 800 500" role="img" aria-label="Illustration of a garden courtyard with walking path and benches">
<rect width="800" height="500" fill="#dfe9f2"/>
<rect y="220" width="800" height="280" fill="#a8c491"/>
<path d="M0 500 C200 380 600 460 800 340 L800 500 Z" fill="#93b47c"/>
<path d="M330 500 Q380 360 400 300 Q420 240 480 220 L520 220 Q440 260 430 320 Q420 380 420 500 Z" fill="#e6d9bd"/>
<g fill="#5f7d54"><circle cx="120" cy="200" r="60"/><rect x="110" y="230" width="20" height="80" fill="#7a5a3d"/></g>
<g fill="#6d8f61"><circle cx="690" cy="180" r="70"/><rect x="680" y="215" width="20" height="90" fill="#7a5a3d"/></g>
<g fill="#8a6d55"><rect x="150" y="330" width="120" height="14" rx="6"/><rect x="158" y="344" width="12" height="34"/><rect x="250" y="344" width="12" height="34"/><rect x="150" y="302" width="120" height="10" rx="5"/></g>
<g fill="#8a6d55"><rect x="560" y="360" width="120" height="14" rx="6"/><rect x="568" y="374" width="12" height="34"/><rect x="660" y="374" width="12" height="34"/><rect x="560" y="332" width="120" height="10" rx="5"/></g>
<g><circle cx="230" cy="430" r="10" fill="#c8556a"/><circle cx="260" cy="450" r="10" fill="#e0a33f"/><circle cx="540" cy="440" r="10" fill="#c8556a"/><circle cx="570" cy="425" r="10" fill="#8f6fae"/><circle cx="200" cy="455" r="10" fill="#8f6fae"/></g>
<circle cx="620" cy="80" r="42" fill="#f6e7b2"/>
</svg>
