<svg xmlns="http://www.w3.org/2000/svg" viewBox="0 0 600 440" role="img" aria-label="Sample studio floor plan, approximately 380 square feet">
<rect width="600" height="440" fill="#ffffff"/>
<g fill="none" stroke="#1b1d21" stroke-width="6">
<rect x="40" y="40" width="520" height="360"/>
<line x1="40" y1="290" x2="230" y2="290"/><line x1="230" y1="290" x2="230" y2="400"/>
</g>
<g fill="none" stroke="#1b1d21" stroke-width="4"><path d="M300 400 A60 60 0 0 1 360 340" /><line x1="300" y1="400" x2="360" y2="400" stroke="#fff" stroke-width="8"/><line x1="300" y1="400" x2="300" y2="340"/></g>
<g fill="#dfe9f2" stroke="#494c52" stroke-width="3">
<rect x="70" y="70" width="150" height="100"/><rect x="410" y="70" width="120" height="80"/><rect x="60" y="310" width="80" height="70"/>
</g>
<rect x="300" y="60" width="120" height="10" fill="#9fb8d8"/>
<g font-family="Georgia, serif" font-size="22" fill="#1b1d21">
<text x="70" y="200">Bed area</text><text x="410" y="180">Sitting area</text>
<text x="58" y="345" font-size="18">Bath</text><text x="58" y="367" font-size="16" fill="#494c52">(walk-in shower)</text>
<text x="300" y="95" font-size="16" fill="#494c52">Window</text>
<text x="250" y="250" font-size="18" fill="#494c52">Kitchenette</text>
</g>
<text x="40" y="430" font-family="Georgia, serif" font-size="16" fill="#494c52">Studio — approx. 380 sq ft (sample layout)</text>
</svg>
