<svg xmlns="http://www.w3.org/2000/svg" viewBox="0 0 800 500" role="img" aria-label="Illustration of the salon and barber shop with styling chair and mirror">
<rect width="800" height="500" fill="#f5efe3"/>
<rect y="380" width="800" height="120" fill="#d9c8a9"/>
<rect x="120" y="80" width="180" height="240" rx="90" fill="#dfe9f2" stroke="#c9b99d" stroke-width="6"/>
<rect x="90" y="330" width="240" height="20" rx="8" fill="#8a6d55"/>
<g fill="#c8556a"><circle cx="160" cy="345" r="8"/><circle cx="200" cy="342" r="8" fill="#5f7d54"/><circle cx="240" cy="345" r="8" fill="#e0a33f"/></g>
<g><rect x="470" y="250" width="140" height="90" rx="16" fill="#0a4aa3"/><rect x="470" y="225" width="140" height="40" rx="16" fill="#2a63b5"/><rect x="520" y="340" width="16" height="40" fill="#1b1d21"/><path d="M528 400 m-34 0 a34 34 0 1 0 68 0" fill="none" stroke="#1b1d21" stroke-width="10"/></g>
<g stroke="#8a6d55" stroke-width="8" fill="none"><line x1="680" y1="150" x2="680" y2="380"/></g>
<circle cx="680" cy="130" r="30" fill="#f6e7b2" stroke="#8a6d55" stroke-width="5"/>
<g fill="#6d8f61"><rect x="650" y="330" width="60" height="50" rx="8"/><circle cx="665" cy="322" r="10" fill="#c8556a"/><circle cx="683" cy="315" r="10" fill="#e0a33f"/><circle cx="700" cy="322" r="10" fill="#8f6fae"/></g>
</svg>
