<svg xmlns="http://www.w3.org/2000/svg" viewBox="0 0 800 500" role="img" aria-label="Illustration of a resident room with bed, chair, and window">
<rect width="800" height="500" fill="#f5efe3"/>
<rect y="370" width="800" height="130" fill="#d9c8a9"/>
<rect x="480" y="70" width="220" height="170" rx="6" fill="#dfe9f2" stroke="#c9b99d" stroke-width="5"/>
<rect x="450" y="60" width="14" height="190" fill="#e6d9bd"/><rect x="700" y="60" width="14" height="190" fill="#e6d9bd"/>
<g><rect x="90" y="260" width="280" height="110" rx="10" fill="#fff" stroke="#b9a887" stroke-width="4"/>
<rect x="90" y="230" width="70" height="70" rx="8" fill="#e8f0f7" stroke="#b9a887" stroke-width="4"/>
<rect x="110" y="290" width="240" height="40" rx="8" fill="#9fb8d8"/></g>
<rect x="70" y="330" width="20" height="90" fill="#8a6d55"/><rect x="360" y="330" width="20" height="90" fill="#8a6d55"/>
<g><rect x="560" y="290" width="130" height="90" rx="14" fill="#5f7d54"/><rect x="560" y="270" width="130" height="34" rx="14" fill="#6d8f61"/><rect x="566" y="376" width="14" height="34" fill="#3f5638"/><rect x="670" y="376" width="14" height="34" fill="#3f5638"/></g>
<g><rect x="420" y="300" width="14" height="90" fill="#8a6d55"/><path d="M400 300 L468 300 L455 260 L413 260 Z" fill="#e0a33f"/></g>
<g fill="#c8556a"><circle cx="230" cy="212" r="8"/><circle cx="248" cy="200" r="8"/><circle cx="212" cy="200" r="8"/><rect x="222" y="218" width="16" height="24" fill="#e8f0f7" stroke="#b9a887" stroke-width="3"/></g>
</svg>
